<svg xmlns="http://www.w3.org/2000/svg" xmlns:xlink="http://www.w3.org/1999/xlink" version="1.1" width="1000" height="1000" viewBox="0 0 1000 1000" xml:space="preserve">
<desc>Created with Fabric.js 3.5.0</desc>
<defs>
</defs>
<rect x="0" y="0" width="100%" height="100%" fill="#ffffff"/>
<g transform="matrix(0.5682 0 0 0.5682 371.955 318.9078)" id="734493">
<g style="" vector-effect="non-scaling-stroke">
		<g transform="matrix(1.0667 0 0 1.0667 0.0064 0.0065)" id="circle4500">
<circle style="stroke: rgb(0,0,0); stroke-width: 2.8496; stroke-dasharray: none; stroke-linecap: butt; stroke-dashoffset: 0; stroke-linejoin: round; stroke-miterlimit: 4; is-custom-font: none; font-file-url: none; fill: rgb(0,0,0); fill-rule: nonzero; opacity: 1;" cx="0" cy="0" r="189.97368"/>
</g>
		<g transform="matrix(1.0667 0 0 1.0667 0.0066 -114.2854)" id="path4502">
<path style="stroke: rgb(0,0,0); stroke-width: 3; stroke-dasharray: none; stroke-linecap: butt; stroke-dashoffset: 0; stroke-linejoin: round; stroke-miterlimit: 4; is-custom-font: none; font-file-url: none; fill: rgb(0,0,0); fill-rule: nonzero; opacity: 1;" transform=" translate(1500.6072, -1052.9317)" d="m -1500.5133 960.17876 c -105.4697 0 -191.864 81.64094 -199.4512 185.17384 l 109.1387 0 a 92.057918 92.057918 0 0 1 90.8164 -77.2325 a 92.057918 92.057918 0 0 1 90.7773 77.5645 l 0.072 0 l 0 -0.332 l 107.9102 0 c -8.6743 -90.1936 -94.5663 -185.17384 -199.2637 -185.17384 z" stroke-linecap="round"/>
</g>
		<g transform="matrix(1.0667 0 0 1.0667 0.0023 0.0023)" id="path4504">
<path style="stroke: rgb(0,0,0); stroke-width: 3; stroke-dasharray: none; stroke-linecap: butt; stroke-dashoffset: 0; stroke-linejoin: round; stroke-miterlimit: 4; is-custom-font: none; font-file-url: none; fill: rgb(0,0,0); fill-rule: nonzero; opacity: 1;" transform=" translate(1500.6071, -1160.0772)" d="m -1500.6071 1091.9356 a 68.140961 68.140961 0 0 0 -68.1406 68.1406 a 68.140961 68.140961 0 0 0 68.1406 68.1426 a 68.140961 68.140961 0 0 0 68.1407 -68.1426 a 68.140961 68.140961 0 0 0 -68.1407 -68.1406 z m 0 43.4903 a 24.651379 24.651379 0 0 1 24.6524 24.6503 a 24.651379 24.651379 0 0 1 -24.6524 24.6524 a 24.651379 24.651379 0 0 1 -24.6503 -24.6524 a 24.651379 24.651379 0 0 1 24.6503 -24.6503 z" stroke-linecap="round"/>
</g>
		<g transform="matrix(1.0667 0 0 1.0667 0.0067 109.5648)" id="path4506">
<path style="stroke: rgb(0,0,0); stroke-width: 3; stroke-dasharray: none; stroke-linecap: butt; stroke-dashoffset: 0; stroke-linejoin: round; stroke-miterlimit: 4; is-custom-font: none; font-file-url: none; fill: rgb(0,0,0); fill-rule: nonzero; opacity: 1;" transform=" translate(1500.6071, -1262.7912)" d="m -1700.5075 1165.6066 c 2.9823 107.8525 91.3447 194.3691 199.918 194.3691 c 108.2636 0 196.4238 -101.5605 199.8828 -194.3691 l -107.5175 0 a 92.057918 92.057918 0 0 1 -91.8614 86.4277 a 92.057918 92.057918 0 0 1 -91.7754 -86.4277 l -108.6465 0 z" stroke-linecap="round"/>
</g>
		<g transform="matrix(1.0667 0 0 1.0667 0.0066 -114.2854)" id="path4508">
<path style="stroke: rgb(0,0,0); stroke-width: 3; stroke-dasharray: none; stroke-linecap: butt; stroke-dashoffset: 0; stroke-linejoin: round; stroke-miterlimit: 4; is-custom-font: none; font-file-url: none; fill: rgb(0,0,0); fill-rule: nonzero; opacity: 1;" transform=" translate(1500.6072, -1052.9317)" d="m -1500.5133 960.17876 c -105.4697 0 -191.864 81.64094 -199.4512 185.17384 l 109.1387 0 a 92.057918 92.057918 0 0 1 90.8164 -77.2325 a 92.057918 92.057918 0 0 1 90.7773 77.5645 l 0.072 0 l 0 -0.332 l 107.9102 0 c -8.6743 -90.1936 -94.5663 -185.17384 -199.2637 -185.17384 z" stroke-linecap="round"/>
</g>
		<g transform="matrix(1.0667 0 0 1.0667 0.0064 0.0065)" id="circle4275">
<circle style="stroke: rgb(0,0,0); stroke-width: 2.8496; stroke-dasharray: none; stroke-linecap: butt; stroke-dashoffset: 0; stroke-linejoin: round; stroke-miterlimit: 4; is-custom-font: none; font-file-url: none; fill: rgb(0,0,0); fill-rule: nonzero; opacity: 1;" cx="0" cy="0" r="189.97368"/>
</g>
		<g transform="matrix(1.0667 0 0 1.0667 0.0066 -114.2854)" id="path4277">
<path style="stroke: rgb(0,0,0); stroke-width: 3; stroke-dasharray: none; stroke-linecap: butt; stroke-dashoffset: 0; stroke-linejoin: round; stroke-miterlimit: 4; is-custom-font: none; font-file-url: none; fill: rgb(255,0,0); fill-rule: nonzero; opacity: 1;" transform=" translate(1500.6072, -1052.9317)" d="m -1500.5133 960.17876 c -105.4697 0 -191.864 81.64094 -199.4512 185.17384 l 109.1387 0 a 92.057918 92.057918 0 0 1 90.8164 -77.2325 a 92.057918 92.057918 0 0 1 90.7773 77.5645 l 0.072 0 l 0 -0.332 l 107.9102 0 c -8.6743 -90.1936 -94.5663 -185.17384 -199.2637 -185.17384 z" stroke-linecap="round"/>
</g>
		<g transform="matrix(1.0667 0 0 1.0667 0.0023 0.0023)" id="path4279">
<path style="stroke: rgb(0,0,0); stroke-width: 3; stroke-dasharray: none; stroke-linecap: butt; stroke-dashoffset: 0; stroke-linejoin: round; stroke-miterlimit: 4; is-custom-font: none; font-file-url: none; fill: rgb(242,242,242); fill-rule: nonzero; opacity: 1;" transform=" translate(1500.6071, -1160.0772)" d="m -1500.6071 1091.9356 a 68.140961 68.140961 0 0 0 -68.1406 68.1406 a 68.140961 68.140961 0 0 0 68.1406 68.1426 a 68.140961 68.140961 0 0 0 68.1407 -68.1426 a 68.140961 68.140961 0 0 0 -68.1407 -68.1406 z m 0 43.4903 a 24.651379 24.651379 0 0 1 24.6524 24.6503 a 24.651379 24.651379 0 0 1 -24.6524 24.6524 a 24.651379 24.651379 0 0 1 -24.6503 -24.6524 a 24.651379 24.651379 0 0 1 24.6503 -24.6503 z" stroke-linecap="round"/>
</g>
		<g transform="matrix(1.0667 0 0 1.0667 0.0067 109.5648)" id="path4281">
<path style="stroke: rgb(0,0,0); stroke-width: 3; stroke-dasharray: none; stroke-linecap: butt; stroke-dashoffset: 0; stroke-linejoin: round; stroke-miterlimit: 4; is-custom-font: none; font-file-url: none; fill: rgb(249,249,249); fill-rule: nonzero; opacity: 1;" transform=" translate(1500.6071, -1262.7912)" d="m -1700.5075 1165.6066 c 2.9823 107.8525 91.3447 194.3691 199.918 194.3691 c 108.2636 0 196.4238 -101.5605 199.8828 -194.3691 l -107.5175 0 a 92.057918 92.057918 0 0 1 -91.8614 86.4277 a 92.057918 92.057918 0 0 1 -91.7754 -86.4277 l -108.6465 0 z" stroke-linecap="round"/>
</g>
		<g transform="matrix(1.0667 0 0 1.0667 0.0066 -114.2854)" id="path4479">
<linearGradient id="SVGID_2" gradientUnits="userSpaceOnUse" gradientTransform="matrix(1 0 0 1 0 0)" x1="-1500" y1="892.36218" x2="-1420" y2="1312.3622">
<stop offset="0%" style="stop-color:rgb(255,255,255);stop-opacity: 1"/>
<stop offset="100%" style="stop-color:rgb(255,0,0);stop-opacity: 0"/>
</linearGradient>
<path style="stroke: rgb(0,0,0); stroke-width: 3; stroke-dasharray: none; stroke-linecap: butt; stroke-dashoffset: 0; stroke-linejoin: round; stroke-miterlimit: 4; is-custom-font: none; font-file-url: none; fill: url(#SVGID_2); fill-rule: nonzero; opacity: 1;" transform=" translate(1500.6072, -1052.9317)" d="m -1500.5133 960.17876 c -105.4697 0 -191.864 81.64094 -199.4512 185.17384 l 109.1387 0 a 92.057918 92.057918 0 0 1 90.8164 -77.2325 a 92.057918 92.057918 0 0 1 90.7773 77.5645 l 0.072 0 l 0 -0.332 l 107.9102 0 c -8.6743 -90.1936 -94.5663 -185.17384 -199.2637 -185.17384 z" stroke-linecap="round"/>
</g>
</g>
</g>
</svg>